<?xml version="1.0" standalone="no"?><!DOCTYPE svg PUBLIC "-//W3C//DTD SVG 1.1//EN" "http://www.w3.org/Graphics/SVG/1.1/DTD/svg11.dtd"><svg t="1617864422462" class="icon" viewBox="0 0 1024 1024" version="1.1" xmlns="http://www.w3.org/2000/svg" p-id="7639" width="16" height="16" xmlns:xlink="http://www.w3.org/1999/xlink"><defs><style type="text/css"></style></defs><path d="M728.234667 165.418667a110.293333 110.293333 0 1 0 0 220.586666 110.293333 110.293333 0 1 0 0-220.586666z m-352-68.266667a144.426667 144.426667 0 1 0 0 288.853333 144.426667 144.426667 0 1 0 0-288.853333z m0-97.152a241.664 241.664 0 0 1 210.986666 123.562667 207.488 207.488 0 0 1 348.586667 152.149333 207.488 207.488 0 0 1-375.296 122.112 241.621333 241.621333 0 0 1-425.898667-156.288A241.621333 241.621333 0 0 1 376.277333 0.042667zM158.250667 672.426667a23.68 23.68 0 0 0-23.594667 23.253333v159.829333a23.765333 23.765333 0 0 0 33.962667 21.248l0.426666-0.213333 146.858667-74.88v-52.949333l-146.986667-73.728a23.765333 23.765333 0 0 0-10.666666-2.56z m597.802666-55.338667h-258.901333a89.258667 89.258667 0 0 0-89.301333 87.765333V842.837333c0 48.810667 39.168 88.448 87.808 89.258667h258.901333a89.344 89.344 0 0 0 89.301333-87.808l0.042667-137.984c0-48.810667-39.210667-88.490667-87.850667-89.258667z m1.152-91.904a178.602667 178.602667 0 0 1 178.645334 178.517333v141.824A178.56 178.56 0 0 1 757.162667 1024h-262.698667a178.730667 178.730667 0 0 1-169.813333-122.88l-156.458667 78.378667A86.741333 86.741333 0 0 1 42.666667 902.016v-254.293333a86.656 86.656 0 0 1 125.866666-77.312L324.266667 649.258667a178.688 178.688 0 0 1 170.154666-124.16h262.698667z" fill="#c75450" p-id="7640"></path></svg>