<?xml version="1.0" standalone="no"?><!DOCTYPE svg PUBLIC "-//W3C//DTD SVG 1.1//EN"
        "http://www.w3.org/Graphics/SVG/1.1/DTD/svg11.dtd">
<svg t="1597386951876" class="icon" viewBox="0 0 1024 1024" version="1.1" xmlns="http://www.w3.org/2000/svg"
     p-id="21888" width="16" height="16">
    <defs>
        <style type="text/css"></style>
    </defs>
    <path d="M708.608 663.04c-20.48 7.68-34.304 16.384-33.28 26.624l-1.024 108.032s0 29.184 33.792 23.552l61.44-14.848v-29.696l-56.32 9.728-1.536-84.992s44.032-10.752 151.04-30.208l13.312-3.072 0.512 155.136s-5.632 35.328-42.496 47.616l-218.624 50.688s-59.392 11.264-138.24-21.504l58.368-81.408 3.072-4.096 2.048-7.68v-3.072l0.512-71.168v-7.68l-2.56-5.12-3.072-4.096-5.12-5.12-112.128-112.128-1.024-1.024-1.024-1.024-1.024-1.024v-9.728l2.56-7.168s11.776-17.92 30.72-22.016l4.608-1.024 1.536-0.512c60.416-3.584 397.824-52.224 421.376 16.896l1.024 58.88-168.448 32.256z"
          p-id="21889" fill="#c75450"></path>
    <path d="M367.616 606.208c-6.144-4.096-13.312-7.168-20.992-8.192l-178.688-23.04c-25.088-3.072-50.176 9.216-50.176 35.84l-2.56 251.392c-0.512 26.624 19.968 56.32 44.544 63.488l185.856 52.736c10.752-0.512 21.504-2.56 31.232-6.656L505.344 808.96l0.512-64.512-138.24-138.24z m-22.016 270.336c0 15.872-12.288 26.112-27.648 23.04l-115.2-24.576c-15.36-3.072-27.648-18.944-27.648-34.816v-172.032c0-15.872 12.288-26.112 27.648-23.04l115.2 24.576c15.36 3.072 27.648 18.944 27.648 34.816v172.032zM747.008 160.768c-51.2 0-96.768 25.6-126.464 65.024-25.6-101.376-111.616-175.616-214.016-175.616C284.16 50.176 184.32 157.184 184.32 289.792c0 113.664 73.216 208.384 171.52 233.472l391.168-16.896c89.088 0 161.792-77.312 161.792-172.544s-72.192-173.056-161.792-173.056zM441.856 419.84C381.952 419.84 332.8 363.008 332.8 292.864s48.64-126.976 109.056-126.976 109.056 56.832 109.056 126.976S502.272 419.84 441.856 419.84z m330.752-2.56c-40.448 0-73.216-37.888-73.216-84.992s32.768-84.992 73.216-84.992 73.216 37.888 73.216 84.992-32.768 84.992-73.216 84.992z"
          p-id="21890" fill="#c75450"></path>
</svg>