<svg t="1602247489553" class="icon" viewBox="0 0 1024 1024" version="1.1" xmlns="http://www.w3.org/2000/svg" p-id="36746" width="15" height="15"><path d="M215.54 548.5c-21.4-133.59 52.09-268.74 183.15-319.7 97.13-37.87 201.87-19.71 276.06 34.35l-63.07 102.21 282.96-1.13L793.43 70.71l-51.81 83.9c-109.24-70.81-258.18-93.9-388.68-43.08-180.75 70.39-284.78 252.7-264.23 436.83h126.83v0.14z m592.95-73.2c21.4 133.59-52.08 268.74-183.14 319.7-89.39 34.77-187.8 21.68-263.53-25.2 14.36-23.37 57.02-92.35 57.02-92.35l-304.36-17.88 128.81 302.24 54.06-87.42c109.25 70.81 243.26 88.69 373.76 37.87 180.61-70.52 284.64-252.69 264.09-436.82l-126.71-0.14z m0 0" p-id="36747" fill="#c75450"></path></svg>